<?xml version="1.0" encoding="UTF-8" standalone="yes"?>
<!-- Created with sK1/UniConvertor (http://sk1project.org/) -->
<svg xmlns="http://www.w3.org/2000/svg" xmlns:xlink="http://www.w3.org/1999/xlink"
  width="93pt" height="101pt" viewBox="0 0 93 101"
  fill-rule="evenodd">
<g>
<g>
<path style="stroke:none; fill:#000000" d="M 19.8 4.7C 20.4 4.89999 20.7 5.7 20.4 6.2C 20 6.89999 20.2 7 20.8 6.6C 22.6 5.5 22.2 4 20.3 4.1C 19.2 4.1 19 4.4 19.8 4.7z"/>
<path style="stroke:none; fill:#000000" d="M 38.5 10C 38.2 10.5 38.6 11 39.4 11C 40.3 11 41 10.5 41 10C 41 9.4 40.6 9 40.1 9C 39.5 9 38.8 9.4 38.5 10z"/>
<path style="stroke:none; fill:#000000" d="M 34.6 16.9C 34.2 17.4 34.4 18.1 34.9 18.4C 35.4 18.8 36.1 18.6 36.4 18.1C 36.8 17.6 36.6 16.9 36.1 16.6C 35.6 16.2 34.9 16.4 34.6 16.9z"/>
<path style="stroke:none; fill:#000000" d="M 46.2 17.6C 46.4 18.6 47.3 19.4 48.2 19.6C 51.1 20 51.2 18.4 48.4 17.1C 46.2 16.1 45.9 16.2 46.2 17.6z"/>
<path style="stroke:none; fill:#000000" d="M 14.5 19C 14.2 19.5 14.4 20 14.9 20C 15.5 20 16 19.5 16 19C 16 18.4 15.8 18 15.6 18C 15.3 18 14.8 18.4 14.5 19z"/>
<path style="stroke:none; fill:#000000" d="M 47.6 25.6C 46.7 26.4 46 27.7 46 28.3C 46 29 46.4 28.9 47 28C 47.8 26.8 48 27.1 48 29.3C 48 30.9 47.3 32.3 46.5 32.6C 45.6 33 45.2 33.9 45.5 34.9C 45.9 36.2 45.1 36.6 41.3 36.8C 36.6 37 34 38.8 36.3 40.2C 36.9 40.6 38.6 40.7 40 40.4C 42.2 39.9 42 40.1 39.1 42C 36.7 43.5 36 44.4 36.9 45C 37.8 45.5 37.8 46 37.2 46.4C 36.6 46.7 35.9 46.4 35.7 45.8C 35.3 44.8 34.9 44.9 34.1 46C 33.5 46.8 33 47.1 33 46.6C 33 46.1 33.8 44.8 34.7 43.8C 36.2 42.1 36.2 42 34.8 42.5C 33 43.2 31.7 45.7 32.5 47C 32.8 47.5 33.8 47.6 34.8 47.3C 36.3 46.7 36.4 46.8 35 48.6C 34 49.9 34.4 49.7 36.2 48.1C 37.7 46.8 38.7 45.2 38.3 44.7C 37.9 44.1 38.3 43.9 39.3 44.3C 40.4 44.7 40.7 44.5 40.3 43.4C 40 42.7 40.3 42 40.9 42C 41.5 42 42 42.4 42 43C 42 43.5 42.9 43.6 44.2 43.1C 46.6 42.2 47.6 39 45.4 39C 44.6 39 44 38.6 44 38C 44 37.5 44.7 37.3 45.5 37.6C 46.6 38 47 37.6 47 36C 47 34.8 47.8 33.1 48.7 32.2C 50.3 30.6 50.3 30.6 49.8 32.7C 49.5 34 49.6 35 50.1 35C 51.7 35 51.1 37.9 49.3 38.9C 47.6 39.9 47.7 39.9 49.5 40L 51.5 40.1L 49.5 40.9C 48.3 41.4 51.6 41.7 57.3 41.5C 62.7 41.4 66.6 41.7 65.9 42.1C 65.2 42.5 65 43.8 65.3 45C 65.6 46.2 65.6 46.9 65.3 46.6C 64.9 46.3 63.9 47.1 63 48.6C 62 50 61 51.1 60.6 51.1C 58.6 50.8 58.1 51.1 58.6 52.4C 59 53.3 58.3 53.7 56.6 53.7C 55.2 53.7 54.3 53.4 54.5 53C 54.8 52.5 53.3 52.2 51.2 52.2C 49.2 52.2 48.1 52.5 48.8 52.7C 49.4 53 50.1 54.1 50.1 55.3C 50.2 57 50.3 57.1 50.7 55.7C 50.9 54.8 51.5 54 52 54C 52.4 54 52.6 54.9 52.3 56C 51.9 57.5 52.3 58 53.9 58C 55.1 58 56.3 57.3 56.6 56.5C 57 55.7 57.7 55 58.2 55C 58.8 55 58.7 55.6 58 56.5C 57.3 57.3 57 58.9 57.3 60C 57.6 61.1 57.5 62 57.1 62C 56.7 62 55.8 63 55.1 64.3C 54 66.3 52.8 66.8 48.3 67.2C 47.6 67.3 47.3 67.7 47.6 68.2C 47.9 68.6 47 69 45.6 69C 44.3 69 42.9 68.4 42.7 67.7C 42.3 66.9 42.1 66.9 42.1 67.7C 42 68.3 43.2 69.8 44.6 70.9C 46.9 72.7 48.7 73 56.1 73C 64.5 73 65 73.1 65 75.1C 65 76.3 63.5 78.6 61.8 80.2C 58.7 83.1 58.2 83.2 51.4 82.8C 46.2 82.4 43.2 81.7 40.4 79.9C 38.2 78.6 36.1 77.7 35.5 77.8C 35 78 34.8 77.8 35.2 77.4C 36 76.7 33.1 71 31.9 71C 31.5 71 30.7 71.7 30 72.5C 29.2 73.4 29.2 74 29.8 74C 30.4 74 31 73.5 31.2 72.8C 31.5 72.1 31.9 72 32.2 72.5C 32.5 73.1 31.7 74.3 30.4 75.3C 28.2 76.9 28.1 76.9 28.7 75.4C 29.1 74.2 29 73.9 28.2 74.4C 27.4 74.9 27.2 74.5 27.7 73.3C 28.3 71.8 28.1 71.7 26.8 72.7C 26 73.4 25 73.7 24.7 73.3C 24.3 73 24 73.3 24 74C 24 74.7 23.8 75.1 23.5 74.8C 23.2 74.5 23.5 73.1 24.1 71.7C 25.1 69.4 25.4 69.3 26.7 70.6C 28.4 72.3 30 71.6 30 69.2C 30 67.7 30.2 67.7 31.1 69C 31.9 70.2 32 70.1 31.6 68.5C 30.9 66.2 30.7 59.6 31.2 56.6C 31.4 55.6 30.9 54.5 30.3 54.3C 29.4 54 29.2 54.7 29.6 56.8C 30 58.5 29.7 60 29.1 60.4C 27.9 61.2 27.8 60.9 27.5 56.7C 27.4 55.2 27.6 54 27.9 54C 28.2 54 28.6 52.8 28.6 51.2C 28.7 49.7 28.5 49.1 28.3 49.7C 28 50.4 27.1 51 26.3 51C 25 51 25 51.3 26 52.5C 27.1 53.8 27 53.9 25.6 53.4C 24.7 53.1 24 53.3 24 53.8C 24 54.4 22.4 55.2 20.5 55.6C 16.7 56.3 14.7 58.1 14.4 61.3C 14.2 62.5 14.4 62.9 14.6 62.3C 15 61.4 15.7 61.3 16.9 62C 17.9 62.5 18.9 62.8 19.1 62.7C 19.3 62.6 18.9 63 18.2 63.6C 17.2 64.5 17.4 64.9 19 65.3C 20.1 65.6 20.8 65.4 20.5 64.9C 20.2 64.4 20.4 63.1 21.1 61.9C 21.7 60.7 21.8 60 21.3 60.3C 20.7 60.7 19 60.5 17.4 60C 15.1 59.3 15.7 59.1 20.8 59.3C 24.2 59.4 27 59.8 27 60.3C 27 60.8 27.7 61.8 28.5 62.6C 29.6 63.8 29.7 64.6 29 66.1C 28.4 67.2 28.2 68.5 28.5 69C 28.8 69.6 28.7 70 28.1 70C 27.6 70 27 69.4 26.7 68.7C 26.4 67.8 25.9 67.9 24.5 69C 22.8 70.4 22.7 70.3 23.4 68.5C 24.5 65.9 24.9 61 24 61C 22.6 61 22.1 62.4 23.1 63.6C 23.8 64.5 23.8 65.5 23 67C 22.4 68.1 22.2 69.4 22.5 69.9C 22.8 70.4 22.6 71 22 71.2C 20.4 71.7 25 79.9 29.3 84.1C 35.5 90 41.2 92.3 50.7 92.8C 57.9 93.2 59.5 92.9 65 90.4C 85.6 81.2 90.5 54.3 74.4 38.2C 71.4 35.3 68.6 33.2 68 33.5C 67.5 33.8 67 33.7 67 33.2C 67 31.6 60.8 29.8 59.6 31C 58.8 31.8 59 32.4 60 33C 61.3 33.8 61.3 34 59.8 34C 58.9 34 57.9 33.5 57.7 33C 57.4 32.4 57.3 32.5 57.4 33.2C 57.6 34 59.1 34.4 61.6 34.3C 64.8 34.2 65.1 34.3 63.3 35C 61.8 35.6 61.2 36.5 61.6 37.5C 62.3 39.3 60.9 39.5 59.2 37.8C 58.3 36.9 58 37 58 38.4C 58 39.3 57.5 39.8 57 39.5C 56.4 39.1 56.2 38.5 56.5 38C 56.8 37.6 56 37.4 54.8 37.8C 52.7 38.3 52.7 38.4 54.6 39.1C 56.3 39.8 56.2 39.9 54 39.9C 51.7 40 51.5 39.6 51.3 35.3C 51.2 32.7 50.7 30.4 50.1 30.2C 49.5 30 49 28.9 49 27.9C 49 26.8 49.4 26.2 50 26.5C 50.6 26.8 50.7 26.4 50.4 25.6C 49.6 23.6 49.5 23.6 47.6 25.6zM 44.4 39.7C 46.3 42 46.3 42 44.1 42C 42.9 42 42.2 41.6 42.5 41C 42.8 40.4 42.4 39.7 41.5 39.4C 40.2 38.9 40.1 38.5 41.1 37.9C 41.9 37.5 42.5 37.2 42.5 37.3C 42.5 37.4 43.4 38.5 44.4 39.7zM 61.7 40.6C 61.4 40.9 60.5 41 59.8 40.7C 59 40.4 59.3 40.1 60.4 40.1C 61.5 40 62.1 40.3 61.7 40.6zM 26.5 55C 26.8 55.5 26.4 56 25.5 56C 24.6 56 24.2 55.5 24.5 55C 24.8 54.4 25.3 54 25.5 54C 25.7 54 26.2 54.4 26.5 55zM 56 56C 56 56.5 55.6 57 55 57C 54.5 57 54 56.5 54 56C 54 55.4 54.5 55 55 55C 55.6 55 56 55.4 56 56zM 24.4 56.6C 25.3 56.9 26 57.7 26 58.2C 26 58.8 25.2 58.9 24.3 58.5C 23.3 58.1 22 57.7 21.3 57.7C 20.6 57.7 20.3 57.3 20.6 56.8C 21.2 55.8 22.3 55.8 24.4 56.6z"/>
<path style="stroke:none; fill:#000000" d="M 52.7 25.6C 51.8 26.5 55 31 56.6 31C 57.4 31 58 30.5 58 29.9C 58 29.3 57.3 29 56.5 29.4C 55.7 29.7 54.9 29.5 54.9 29C 54.8 28.4 54.7 27.6 54.6 27.1C 54.4 25.7 53.4 24.9 52.7 25.6z"/>
<path style="stroke:none; fill:#000000" d="M 18.3 27.9C 18.7 30.5 21.5 31.6 22.4 29.5C 22.7 28.7 22.2 27.6 21.4 27C 20.3 26 20 26 20 27.1C 20 28.2 19.8 28.2 19 27C 18.2 25.8 18.1 26 18.3 27.9z"/>
<path style="stroke:none; fill:#000000" d="M 38.2 28C 38.2 28.3 38.2 29.2 38.1 30C 38 31.3 37.9 31.3 37 30C 36.5 29.2 36 29 36 29.6C 36 30.1 36.6 31.5 37.4 32.6C 38.9 34.5 38.9 34.5 41.1 32.3C 42.4 31.1 43.1 29.7 42.6 29.3C 42.2 28.9 41.5 29.2 41 30C 40.4 30.8 40 31 40 30.4C 40 29.9 40.4 29 41 28.4C 41.6 27.8 41.3 27.4 40.1 27.4C 39 27.4 38.2 27.7 38.2 28z"/>
<path style="stroke:none; fill:#000000" d="M 9 30.1C 9 30.6 9.5 30.8 10 30.5C 10.6 30.2 11 29.7 11 29.4C 11 29.2 10.6 29 10 29C 9.5 29 9 29.5 9 30.1z"/>
<path style="stroke:none; fill:#000000" d="M 28.4 31.7C 28.8 32.5 28.6 33 27.9 33C 26.9 33 26.9 33.3 27.8 34.2C 28.8 35.1 29.3 35.1 30.3 34C 31 33.2 31.4 32.6 31.1 32.7C 30.9 32.9 30 32.4 29.2 31.7C 27.9 30.8 27.8 30.8 28.4 31.7z"/>
<path style="stroke:none; fill:#000000" d="M 23.4 33.6C 22.4 34.5 22.1 34.9 22.8 34.5C 23.5 34.1 24 34.5 24 35.4C 24 36.3 24.6 37 25.4 37C 27.5 37 28 35.7 26.6 33.8C 25.4 32.2 25.1 32.2 23.4 33.6z"/>
<path style="stroke:none; fill:#000000" d="M 32.9 33.7C 32.8 34.1 32.8 34.9 32.9 35.4C 33 35.9 32.4 36 31.6 35.7C 30.7 35.3 29.8 35.5 29.5 36C 29.1 36.6 29.8 37 30.9 37C 32.1 37 33 37.5 33 38.2C 33 39.9 34 38.6 34.5 36.2C 34.7 35 34.5 33.8 33.9 33.5C 33.4 33.1 32.9 33.2 32.9 33.7z"/>
<path style="stroke:none; fill:#000000" d="M 21.7 36.7C 21.3 37 21.6 38 22.3 38.8C 23.2 40.1 23.2 40.2 22.3 39.6C 20.7 38.7 20.7 39.5 22.1 42.1C 22.6 43.2 23.5 43.8 24.1 43.5C 24.6 43.1 25 43.8 25 44.9C 25 46.1 25.5 47 26.1 47C 26.6 47 26.8 47.6 26.4 48.2C 26 48.9 26.1 49.2 26.5 48.7C 27.6 47.7 27.9 43.9 26.8 44.6C 25.7 45.3 25.8 44.3 26.9 42.1C 27.5 41.1 27.5 39.8 26.9 38.9C 26.3 37.9 26 38.3 25.9 40.5C 25.9 42.1 25.6 42.9 25.3 42.2C 25.1 41.6 24.3 41.3 23.7 41.7C 22.8 42.2 22.8 42 23.7 40.9C 24.6 39.8 24.5 39.1 23.6 37.8C 22.9 36.8 22 36.3 21.7 36.7z"/>
<path style="stroke:none; fill:#000000" d="M 6.4 43.5C 6.8 46.2 9.2 46.1 9.6 43.3C 9.9 41.7 9.5 41.2 8 41.3C 6.7 41.4 6.2 42 6.4 43.5z"/>
<path style="stroke:none; fill:#000000" d="M 15.5 47C 14.7 49.7 16.7 52.2 19.4 51.8C 20.9 51.6 21.5 50.8 21.5 48.8C 21.6 47.3 21.2 46.4 20.8 46.6C 20.4 46.9 20 46.5 20 45.8C 20 44.9 19.7 44.9 19 46C 17.6 48.2 17.8 49 19.8 49C 21.2 49 21.3 49.2 20 50C 18.2 51.1 16.8 49.3 17.6 46.7C 17.9 45.8 17.7 45 17.1 45C 16.6 45 15.8 45.9 15.5 47z"/>
<path style="stroke:none; fill:#000000" d="M 29.7 46.6C 29.3 47 29.5 47.9 30.1 48.7C 31 49.7 30.9 50.4 29.9 51.7C 28.9 52.8 28.9 53.1 29.8 52.6C 30.4 52.2 31 52.4 31 52.9C 31 54.6 32.7 54.2 33.4 52.4C 33.7 51.6 33.6 51.2 33 51.5C 32.4 51.8 32 51.3 32 50.3C 32 48 30.6 45.8 29.7 46.6z"/>
<path style="stroke:none; fill:#000000" d="M 44.1 55.4L 42 57.6L 44.8 57.4C 48.6 57.2 48.7 57.2 48.7 55.5C 48.7 53.1 46.3 53 44.1 55.4zM 47 56C 47 56.5 46.8 57 46.6 57C 46.3 57 45.8 56.5 45.5 56C 45.2 55.4 45.4 55 45.9 55C 46.5 55 47 55.4 47 56z"/>
<path style="stroke:none; fill:#000000" d="M 26.4 65C 26.4 66.3 26.8 66.6 27.4 66C 28.1 65.3 28.1 64.7 27.4 64C 26.8 63.4 26.4 63.7 26.4 65z"/>
</g>
</g>
</svg>